<?xml version="1.0" encoding="utf-8"?>
<!-- Generator: Adobe Illustrator 23.0.1, SVG Export Plug-In . SVG Version: 6.00 Build 0)  -->
<svg version="1.1" id="Layer_1" xmlns="http://www.w3.org/2000/svg" xmlns:xlink="http://www.w3.org/1999/xlink" x="0px" y="0px"
	 viewBox="0 0 16 16" style="enable-background:new 0 0 16 16;" xml:space="preserve">
<style type="text/css">
	.st0{fill:#020202;}
</style>
<path class="st0" d="M0.2,1.1v13.3h5c0,0,1.8-1.3,2.3-2.2c0,0,0.4-0.4,0.5-1.1c0.2-0.5,0.2-3.6,0.2-3.6s0-0.7-0.4-1.1
	C7.6,6.1,5,3.3,5,3.3H2.5v8.8h2.2l1.4-1.3l0.2-2l-2,2H3.8V4.7h0.7l2.3,2.5v3.6c0,0-0.7,1.3-2,2.2H1.4V2.4h3.8l2.7,2.7l2.7-2.5l4-0.2
	V9v4.1h-0.9V3.4h-2.3H11L8.8,5.8l0.4,1.6l2.5-2.7h0.5v4.7v5.2h3.6V1.1h-5.4c0,0-1.8,0.9-2.3,2c0,0-1.6-2-2.3-2
	C5,0.9,0.2,1.1,0.2,1.1z"/>
</svg>
